<?xml version="1.0" encoding="UTF-8"?>
<svg id="layer" xmlns="http://www.w3.org/2000/svg" viewBox="0 0 600 180.2">
  <defs>
    <style>
      .cls-1 {
        fill: #0076d3;
        stroke-width: 0px;
      }
    </style>
  </defs>
  <path class="cls-1" d="m144.7,137.8c-3.5,8.7-8.6,16.1-15.2,22.2-6.6,6.2-14.5,11-23.9,14.5-9.3,3.5-19.6,5.2-31,5.2s-21.9-1.7-31.1-5.2c-9.2-3.5-17.1-8.3-23.5-14.5s-11.4-13.6-14.8-22.2c-3.5-8.6-5.2-18.2-5.2-28.8V0h42.3v105.5c0,4.8.6,9.3,1.8,13.6,1.2,4.3,3.1,8.1,5.7,11.5,2.5,3.4,5.9,6.1,10.1,8,4.2,2,9.2,3,15.1,3s11-1,15.1-3c4.2-2,7.6-4.7,10.2-8,2.6-3.4,4.5-7.2,5.7-11.5,1.2-4.3,1.7-8.8,1.7-13.6V.1h42.3v109c0,10.5-1.8,20.1-5.3,28.7m129.6-82.2c0,4.2-.8,7.7-2.5,10.5s-4,5-7,6.7-6.3,2.9-10,3.6-7.6,1-11.7,1h-18.3v-42.4h19c3.9,0,7.7.3,11.3.8,3.6.5,6.9,1.5,9.8,3s5.2,3.6,6.9,6.3c1.7,2.8,2.5,6.3,2.5,10.5m43.4-.2c0-10.3-1.8-19-5.5-26-3.6-7-8.6-12.7-15-17-6.3-4.3-13.8-7.4-22.3-9.4-8.5-1.9-17.7-2.9-27.5-2.9h-66v179.7h43.4v-67.8h21.6c9.3,0,18.3-1,26.9-3s16.2-5.2,22.8-9.6c6.6-4.4,11.8-10.2,15.7-17.4,4-7.3,5.9-16.1,5.9-26.6m90.5-19c.9-2.1,1.3-4.4,1.3-7V2.9h-10.3v25.6c0,1.2-.1,2.3-.4,3.3s-.7,2-1.4,2.8c-.6.8-1.5,1.5-2.5,2s-2.3.7-3.7.7-2.7-.2-3.7-.7-1.8-1.1-2.5-2c-.6-.8-1.1-1.8-1.4-2.8s-.4-2.1-.4-3.3V2.8h-10.3v26.5c0,2.6.4,4.9,1.3,7,.8,2.1,2,3.9,3.6,5.4s3.5,2.7,5.7,3.5,4.8,1.3,7.6,1.3,5.3-.4,7.5-1.3c2.3-.8,4.2-2,5.8-3.5,1.7-1.4,2.9-3.2,3.8-5.3m37.6,9v-18.5c0-1.5-.2-3-.6-4.4-.4-1.5-1-2.8-1.9-3.9-.9-1.1-2-2.1-3.4-2.8s-3.1-1.1-5.1-1.1c-1,0-2,.1-2.9.4-.9.3-1.8.6-2.6,1.1-.8.4-1.5,1-2,1.6-.6.6-1.1,1.3-1.4,1.9h-.1v-4.2h-9.6v30h9.9v-16.2c0-.8.1-1.7.3-2.4.2-.8.6-1.5,1-2.1s1-1.1,1.7-1.4,1.4-.5,2.3-.5,1.6.2,2.2.5,1,.8,1.4,1.4c.3.6.6,1.3.7,2,.1.8.2,1.6.2,2.4v16.4h9.9v-.2Zm6.7,0h9.9V15.4h-9.9v30Zm10.6-39.5c0-.8-.1-1.5-.5-2.1-.3-.7-.7-1.2-1.2-1.7s-1.1-.9-1.8-1.1c-.7-.3-1.4-.4-2.2-.4s-1.5.1-2.2.5c-.7.3-1.3.7-1.8,1.2s-.9,1.1-1.2,1.7c-.3.7-.4,1.4-.4,2.1,0,1.5.5,2.8,1.6,3.8,1.1,1.1,2.4,1.6,4,1.6.8,0,1.5-.1,2.2-.4.7-.3,1.3-.7,1.8-1.1.5-.5.9-1.1,1.2-1.7.3-.9.5-1.6.5-2.4m28.3,24.4c0,1-.1,1.9-.4,2.8-.3.9-.8,1.8-1.4,2.5-.6.7-1.3,1.3-2.2,1.8-.9.4-1.9.7-3.1.7s-2.2-.2-3.1-.7c-.9-.4-1.6-1-2.2-1.8-.6-.7-1.1-1.6-1.4-2.5s-.4-1.9-.4-2.8c0-1,.2-1.9.4-2.8.3-.9.7-1.7,1.3-2.4.6-.7,1.3-1.3,2.2-1.7.9-.4,1.9-.7,3.1-.7s2.2.2,3.1.7c.9.4,1.6,1,2.2,1.7.6.7,1.1,1.5,1.4,2.4.4.9.5,1.9.5,2.8m9.5,0c0-2.4-.4-4.7-1.3-6.6-.9-2-2.1-3.6-3.6-5s-3.3-2.4-5.3-3.1c-2-.7-4.2-1.1-6.4-1.1s-4.4.4-6.4,1.1c-2,.7-3.8,1.8-5.3,3.1-1.5,1.4-2.7,3-3.6,5s-1.3,4.2-1.3,6.6.4,4.7,1.3,6.6c.9,2,2.1,3.7,3.6,5.1s3.3,2.5,5.3,3.2c2,.8,4.2,1.1,6.4,1.1s4.4-.4,6.4-1.1c2-.8,3.8-1.8,5.3-3.2,1.5-1.4,2.7-3.1,3.6-5.1.9-1.9,1.3-4.1,1.3-6.6m34.9,15.1v-18.5c0-1.5-.2-3-.6-4.4-.4-1.5-1-2.8-1.9-3.9-.9-1.1-2-2.1-3.4-2.8s-3.1-1.1-5.1-1.1c-1,0-2,.1-3,.4-.9.3-1.8.6-2.6,1.1-.8.4-1.5,1-2,1.6-.6.6-1.1,1.3-1.4,1.9h-.1v-4.2h-9.6v30h9.9v-16.2c0-.8.1-1.7.3-2.4.2-.8.5-1.5,1-2.1.4-.6,1-1.1,1.7-1.4s1.4-.5,2.3-.5,1.6.2,2.2.5c.6.3,1,.8,1.4,1.4.3.6.6,1.3.7,2,.1.8.2,1.6.2,2.4v16.4h10v-.2Zm-140.8,30.8c0,1-.2,1.8-.6,2.5s-1,1.2-1.7,1.6-1.5.7-2.4.8c-.9.2-1.8.2-2.8.2h-4.3v-10h4.5c.9,0,1.8.1,2.7.2.9.1,1.6.4,2.3.7.7.4,1.2.9,1.6,1.5.5.6.7,1.5.7,2.5m10.2-.1c0-2.4-.4-4.5-1.3-6.2s-2-3-3.5-4-3.3-1.8-5.3-2.2c-2-.5-4.2-.7-6.5-.7h-15.6v42.6h10.3v-16.1h5.1c2.2,0,4.3-.2,6.4-.7,2-.5,3.8-1.2,5.4-2.3,1.6-1,2.8-2.4,3.7-4.1.9-1.7,1.3-3.8,1.3-6.3m12.1,11.1c0-.8.2-1.5.6-2.2s.8-1.3,1.4-1.8,1.3-.9,2.1-1.2c.8-.3,1.7-.4,2.6-.4,2,0,3.4.6,4.4,1.7s1.5,2.5,1.5,4h-12.6v-.1Zm21.8,3.8c0-2.6-.4-4.9-1.1-6.9s-1.8-3.7-3.1-5.1c-1.3-1.4-2.9-2.5-4.8-3.2-1.8-.7-3.9-1.1-6.1-1.1s-4.4.4-6.4,1.1c-2,.8-3.7,1.8-5.1,3.2-1.4,1.4-2.6,3.1-3.4,5.1s-1.3,4.2-1.3,6.6.4,4.8,1.3,6.7c.9,2,2,3.6,3.5,5,1.5,1.3,3.3,2.4,5.3,3.1s4.1,1.1,6.4,1.1c3,0,5.7-.6,8-1.7s4.2-2.7,5.6-4.7l-6.9-4.3c-.7.9-1.6,1.7-2.6,2.3-1.1.6-2.4.9-4,.9-.9,0-1.7-.1-2.6-.4-.8-.3-1.6-.7-2.2-1.2s-1.2-1.1-1.6-1.8c-.4-.7-.7-1.4-.7-2.3h21.7c0-.4.1-.7.1-1.1v-1.3m23.7,2.5c0,1.9-.5,3.4-1.6,4.5s-2.6,1.7-4.6,1.7c-.5,0-1,0-1.5-.1s-1-.3-1.4-.5-.7-.6-1-1-.4-.9-.4-1.4c0-.9.3-1.6.8-2.1.6-.5,1.3-1,2.1-1.2.9-.3,1.8-.5,2.9-.6s2.2-.1,3.3-.1h1.3v.8h.1Zm-13.2-8.4c.9-.8,2-1.6,3.3-2.2s2.7-.9,4.1-.9c1.5,0,2.8.4,3.8,1.1s1.6,1.8,1.6,3.3v.5c-2.2,0-4.4.1-6.7.4-2.3.2-4.4.7-6.2,1.4-1.9.7-3.4,1.7-4.6,3.1-1.2,1.3-1.8,3.1-1.8,5.2,0,1.8.3,3.2,1,4.4.7,1.2,1.6,2.2,2.6,2.9,1.1.7,2.2,1.2,3.5,1.6,1.3.3,2.5.5,3.7.5,1.8,0,3.5-.3,5-1s2.7-1.6,3.5-2.9h.2v3.2h9v-15.2c0-2.7-.2-5.1-.8-7.1-.5-2-1.3-3.6-2.4-4.9s-2.5-2.3-4.2-2.9-3.9-.9-6.4-.9-4.8.4-7.2,1.3c-2.3.8-4.4,2.1-6.2,3.8l5.2,5.3Zm48.3-10.1c-.2-.1-.6-.1-.9-.2-.4,0-.8-.1-1.2-.1-1.8,0-3.5.5-4.9,1.5s-2.5,2.2-3.2,3.8h-.1v-4.4h-9.5v30h9.9v-15.4c0-.6.1-1.3.4-2.1.2-.8.6-1.5,1.2-2.2.5-.7,1.3-1.3,2.2-1.7.9-.5,2-.7,3.3-.7.4,0,.8,0,1.2.1.4,0,.9.1,1.3.2l.3-8.8Zm29.7,3.9c-1.5-1.4-3.3-2.5-5.4-3.2-2.1-.7-4.3-1.1-6.6-1.1-1.4,0-2.9.2-4.4.6s-2.8,1-4,1.8-2.2,1.8-2.9,3.1c-.8,1.3-1.1,2.8-1.1,4.6,0,1.4.3,2.6.8,3.6s1.2,1.8,2,2.5,1.8,1.2,2.8,1.6,2.1.7,3.1,1c2,.5,3.5.9,4.5,1.4,1,.4,1.4,1.1,1.4,2,0,1-.4,1.6-1.2,2s-1.6.6-2.4.6c-1.4,0-2.8-.3-4.1-1-1.3-.6-2.4-1.4-3.2-2.4l-5.5,5.8c1.6,1.5,3.5,2.7,5.9,3.5,2.3.8,4.7,1.2,7.2,1.2,1.5,0,3-.2,4.6-.5,1.5-.4,2.9-.9,4.1-1.7,1.2-.8,2.2-1.9,3-3.2.8-1.3,1.1-2.9,1.1-4.8,0-1.4-.3-2.7-.8-3.7-.6-1-1.3-1.9-2.2-2.6s-2-1.3-3.1-1.7c-1.1-.4-2.3-.8-3.4-1-1.9-.4-3.3-.8-4.2-1.2-.9-.4-1.3-1-1.3-1.8,0-.9.4-1.5,1.2-1.9s1.6-.5,2.6-.5c1.2,0,2.3.3,3.4.8,1.1.5,2,1.2,2.8,1.9l5.3-5.7Zm27.8,11.6c0,1-.1,1.9-.4,2.8-.3.9-.7,1.8-1.4,2.5-.6.7-1.3,1.3-2.2,1.8-.9.4-1.9.7-3.1.7s-2.2-.2-3.1-.7c-.9-.4-1.6-1-2.2-1.8-.6-.7-1.1-1.6-1.4-2.5-.3-.9-.4-1.9-.4-2.8s.1-1.9.4-2.8c.3-.9.7-1.7,1.3-2.4.6-.7,1.3-1.3,2.2-1.7.9-.4,1.9-.7,3.1-.7s2.2.2,3.1.7c.9.4,1.6,1,2.2,1.7.6.7,1.1,1.5,1.4,2.4.4.9.5,1.8.5,2.8m9.5,0c0-2.4-.4-4.6-1.3-6.6-.9-2-2.1-3.6-3.6-5s-3.3-2.4-5.3-3.1-4.2-1.1-6.4-1.1-4.4.4-6.4,1.1-3.8,1.8-5.3,3.1c-1.5,1.4-2.7,3-3.6,5-.9,2-1.3,4.2-1.3,6.6s.4,4.7,1.3,6.6c.9,2,2.1,3.7,3.6,5.1s3.3,2.5,5.3,3.2c2,.8,4.2,1.1,6.4,1.1s4.4-.4,6.4-1.1c2-.8,3.8-1.8,5.3-3.2,1.5-1.4,2.7-3.1,3.6-5.1s1.3-4.2,1.3-6.6m34.9,15.1v-18.5c0-1.5-.2-3-.6-4.4-.4-1.5-1-2.8-1.9-3.9s-2-2.1-3.4-2.8c-1.4-.7-3.1-1.1-5.1-1.1-1,0-2,.1-2.9.4s-1.8.6-2.6,1.1c-.8.4-1.5,1-2,1.6-.6.6-1.1,1.3-1.4,1.9h-.1v-4.1h-9.6v30h9.9v-16.2c0-.8.1-1.7.3-2.4.2-.8.5-1.5,1-2.1.4-.6,1-1.1,1.7-1.4s1.4-.5,2.3-.5,1.6.2,2.2.5c.6.3,1,.8,1.4,1.4.3.6.6,1.3.7,2,.1.8.2,1.6.2,2.4v16.4h9.9v-.3Zm-197.1,60.1v-8.8h-19.8v-8.8h17.7v-8.2h-17.7v-8.1h18.7v-8.7h-28.6v42.6h29.7Zm40.5,0l-11.8-15.7,10.8-14.3h-11.1l-5.7,8-5.6-8h-11.5l10.8,14.3-12,15.7h11.4l6.6-9.2,6.4,9.2h11.7Zm27.7-15.1c0,1-.1,1.9-.4,2.9-.3.9-.7,1.8-1.3,2.5-.6.7-1.3,1.3-2.2,1.7-.9.4-1.9.7-3.1.7-1.1,0-2.1-.2-3-.7-.9-.4-1.6-1-2.3-1.7-.6-.7-1.1-1.5-1.4-2.5-.3-.9-.5-1.9-.5-2.8,0-1,.2-1.9.5-2.8s.8-1.7,1.4-2.5c.6-.7,1.4-1.3,2.3-1.7.9-.4,1.9-.7,3-.7,1.2,0,2.2.2,3.1.7.9.4,1.6,1,2.2,1.7s1,1.5,1.3,2.4c.2.9.4,1.9.4,2.8m9.5,0c0-2.1-.3-4.1-1-6s-1.6-3.6-2.8-5c-1.2-1.4-2.7-2.6-4.5-3.4s-3.7-1.3-5.9-1.3-4.1.5-5.7,1.4-2.9,2-3.8,3.2h-.2v-3.7h-9.4v44.4h9.9v-17.7h.1c.9,1.3,2.2,2.3,3.8,3,1.6.7,3.4,1.1,5.2,1.1,2.2,0,4.3-.4,6-1.3,1.8-.9,3.3-2.1,4.5-3.5,1.2-1.5,2.2-3.2,2.8-5.1.7-2,1-4,1-6.1m25.2-15.4c-.2-.1-.6-.1-.9-.2-.4,0-.8-.1-1.2-.1-1.8,0-3.5.5-4.9,1.5s-2.5,2.2-3.3,3.8h-.1v-4.4h-9.5v30h9.9v-15.4c0-.6.1-1.3.4-2.1.2-.8.6-1.5,1.2-2.2.5-.7,1.3-1.3,2.2-1.7.9-.5,2-.7,3.3-.7.4,0,.8,0,1.2.1.4,0,.9.1,1.3.2l.4-8.8Zm12.3,12.1c0-.8.2-1.5.6-2.2.4-.7.8-1.3,1.4-1.8.6-.5,1.3-.9,2.1-1.2.8-.3,1.7-.4,2.6-.4,2,0,3.4.6,4.4,1.7s1.5,2.5,1.5,4h-12.6v-.1Zm21.7,3.8c0-2.6-.4-4.9-1.1-6.9-.7-2-1.8-3.7-3.1-5.1s-2.9-2.5-4.7-3.2-3.9-1.1-6.1-1.1-4.4.4-6.4,1.1c-2,.8-3.7,1.8-5.1,3.2-1.4,1.4-2.6,3.1-3.4,5.1-.8,2-1.3,4.2-1.3,6.6s.4,4.8,1.3,6.7c.9,2,2,3.6,3.5,5,1.5,1.3,3.3,2.4,5.3,3.1s4.1,1.1,6.4,1.1c3,0,5.7-.5,8-1.7,2.3-1.1,4.2-2.7,5.6-4.7l-6.9-4.3c-.7.9-1.6,1.7-2.7,2.3-1.1.6-2.4.9-4,.9-.9,0-1.7-.1-2.6-.4-.8-.3-1.6-.7-2.2-1.2-.7-.5-1.2-1.1-1.6-1.8-.4-.7-.7-1.4-.7-2.3h21.7c0-.4.1-.7.1-1.1v-1.3m30.6-12.1c-1.5-1.4-3.3-2.5-5.4-3.2-2.1-.7-4.3-1-6.6-1-1.4,0-2.9.2-4.4.6s-2.8,1-4,1.8-2.2,1.8-2.9,3.1c-.8,1.3-1.1,2.8-1.1,4.6,0,1.4.3,2.6.8,3.6s1.2,1.8,2,2.5,1.8,1.2,2.8,1.6,2.1.7,3.1,1c2,.5,3.5.9,4.5,1.4,1,.4,1.4,1.1,1.4,2,0,1-.4,1.6-1.2,2s-1.6.6-2.4.6c-1.4,0-2.8-.3-4.1-1-1.3-.6-2.4-1.4-3.3-2.4l-5.5,5.8c1.6,1.5,3.5,2.7,5.9,3.5,2.3.8,4.7,1.2,7.2,1.2,1.5,0,3-.2,4.6-.5,1.5-.4,2.9-.9,4.1-1.7,1.2-.8,2.2-1.9,3-3.2.8-1.3,1.1-2.9,1.1-4.8,0-1.4-.3-2.7-.8-3.7-.6-1-1.3-1.9-2.2-2.7-.9-.7-2-1.3-3.1-1.7-1.1-.4-2.3-.8-3.4-1-1.9-.4-3.3-.8-4.2-1.2-.9-.4-1.3-1-1.3-1.8,0-.9.4-1.5,1.2-1.9s1.6-.5,2.6-.5c1.2,0,2.4.3,3.4.8,1.1.5,2,1.2,2.8,1.9l5.4-5.7Zm29.8,0c-1.5-1.4-3.3-2.5-5.4-3.2-2.1-.7-4.3-1-6.6-1-1.4,0-2.9.2-4.4.6s-2.8,1-4,1.8-2.2,1.8-3,3.1c-.8,1.3-1.1,2.8-1.1,4.6,0,1.4.3,2.6.8,3.6s1.2,1.8,2,2.5,1.8,1.2,2.8,1.6,2.1.7,3.1,1c2,.5,3.5.9,4.5,1.4,1,.4,1.4,1.1,1.4,2,0,1-.4,1.6-1.2,2s-1.6.6-2.4.6c-1.4,0-2.8-.3-4.1-1-1.3-.6-2.4-1.4-3.2-2.4l-5.5,5.8c1.6,1.5,3.5,2.7,5.9,3.5,2.3.8,4.7,1.2,7.2,1.2,1.5,0,3-.2,4.6-.5,1.5-.4,2.9-.9,4.1-1.7,1.2-.8,2.2-1.9,3-3.2.8-1.3,1.1-2.9,1.1-4.8,0-1.4-.3-2.7-.8-3.7-.6-1-1.3-1.9-2.2-2.7-.9-.7-2-1.3-3.1-1.7-1.1-.4-2.3-.8-3.4-1-1.9-.4-3.3-.8-4.2-1.2-.9-.4-1.3-1-1.3-1.8,0-.9.4-1.5,1.2-1.9s1.6-.5,2.6-.5c1.2,0,2.3.3,3.4.8,1.1.5,2,1.2,2.8,1.9l5.4-5.7Z"/>
</svg>